<svg xmlns="http://www.w3.org/2000/svg" viewBox="0 0 64 64" fill="none">
  <rect width="64" height="64" rx="14" fill="#0B3D6B"/>
  <circle cx="50" cy="14" r="7" fill="#FFD23F"/>
  <!-- Chicago skyline -->
  <rect x="8" y="30" width="7" height="18" rx="0.5" fill="#FFFFFF"/>
  <rect x="16" y="24" width="6" height="24" rx="0.5" fill="#FFFFFF"/>
  <rect x="23" y="14" width="8" height="34" rx="0.5" fill="#FFFFFF"/>
  <rect x="26" y="9" width="2" height="6" fill="#FFFFFF"/>
  <circle cx="27" cy="8" r="1.4" fill="#FFFFFF"/>
  <rect x="32" y="20" width="7" height="28" rx="0.5" fill="#FFFFFF"/>
  <rect x="40" y="17" width="6" height="31" rx="0.5" fill="#FFFFFF"/>
  <rect x="41.5" y="13" width="3" height="5" fill="#FFFFFF"/>
  <rect x="47" y="26" width="6" height="22" rx="0.5" fill="#FFFFFF"/>
  <!-- Lake waves -->
  <path d="M4 48 C14 44 20 50 28 46 C36 42 42 48 50 45 C56 43 60 46 62 48 L62 60 L4 60 Z" fill="#4DA6E8"/>
  <path d="M4 53 C16 50 24 55 34 52 C44 49 52 53 62 51 L62 60 L4 60 Z" fill="#0B3D6B" opacity="0.35"/>
  <!-- Boat -->
  <path d="M18 46 L30 46 L27.5 51 L15.5 51 Z" fill="#FF6B4A"/>
  <path d="M22 46 L22 39 L28 46 Z" fill="#FFD23F"/>
</svg>
